<svg width="254" height="39" viewBox="0 0 254 39" fill="none" xmlns="http://www.w3.org/2000/svg">
<g clip-path="url(#clip0_171_109)">
<path d="M16.934 32.3146C16.8789 32.9977 16.4713 33.3944 16.1187 33.6147C15.039 34.1546 13.816 34.4631 12.527 34.4631C8.0208 34.4631 4.36296 30.8052 4.36296 26.299C4.36296 21.7928 8.0208 18.135 12.527 18.135C13.2982 18.135 14.0474 18.2452 14.7636 18.4435V13.9704C14.0364 13.8381 13.2872 13.772 12.527 13.772C5.60795 13.75 0 19.369 0 26.288C0 33.2071 5.60795 38.815 12.527 38.815C15.645 38.815 18.5646 37.581 20.3054 36.0496C20.4156 35.9284 20.5368 35.8182 20.691 35.5758C20.691 35.5758 20.7681 35.4546 20.7681 35.4436C20.8122 35.3665 20.9224 35.1792 20.9334 35.1572C21.0105 34.9699 21.0877 34.7716 21.1427 34.5292C21.1427 34.5181 21.1427 34.5181 21.1427 34.5071C21.1538 34.4851 21.1538 34.452 21.1538 34.43C21.1648 34.3859 21.1648 34.3419 21.1758 34.2978C21.1868 34.2207 21.1978 34.1546 21.2088 34.0774C21.2199 34.0113 21.2309 33.824 21.2309 33.7579V29.1636L16.901 22.9166V32.3146H16.934Z" fill="white"/>
<path d="M41.9881 14.5432C41.1067 14.8848 39.0574 15.8763 37.4378 18.0468L37.4268 18.0358L29.4611 29.4941L21.4954 18.0358L21.4843 18.0468C19.8648 15.8763 17.8045 14.8848 16.9341 14.5432V19.1265L29.4611 37.1623L41.9881 19.1265V14.5432Z" fill="white"/>
<path d="M46.3951 13.75C45.6349 13.75 44.8857 13.8271 44.1585 13.9593V18.4325C44.8637 18.2342 45.6129 18.124 46.3951 18.124C50.9013 18.124 54.5591 21.7818 54.5591 26.288C54.5591 30.7942 50.9013 34.452 46.3951 34.452C45.1061 34.452 43.8831 34.1435 42.8034 33.6037C42.4618 33.3944 42.0542 32.9977 41.9991 32.3036V22.9166L37.6692 29.1636V33.7579C37.6692 33.824 37.6912 34.0113 37.6912 34.0774C37.7022 34.1546 37.7133 34.2207 37.7243 34.2978C37.7353 34.3419 37.7353 34.3859 37.7463 34.43C37.7573 34.452 37.7573 34.4851 37.7573 34.5071C37.7573 34.5181 37.7573 34.5181 37.7573 34.5292C37.8124 34.7605 37.8895 34.9699 37.9777 35.1461C37.9887 35.1682 38.0989 35.3555 38.1429 35.4326L38.2201 35.5648C38.3743 35.8072 38.4955 35.9284 38.6057 36.0386C40.3465 37.57 43.2661 38.804 46.3951 38.804C53.3142 38.804 58.9221 33.196 58.9221 26.277C58.9221 19.358 53.3142 13.75 46.3951 13.75Z" fill="white"/>
<path d="M21.4953 14.2678C21.3741 13.7059 21.308 13.133 21.308 12.538C21.308 8.04284 24.9549 4.385 29.461 4.385C33.9562 4.385 37.6141 8.03182 37.6141 12.538C37.6141 13.133 37.5479 13.7169 37.4268 14.2678C38.7709 13.2872 40.3134 12.5711 41.988 12.1854C41.8007 5.42065 36.2699 0 29.461 0C22.6632 0 17.1213 5.42065 16.9451 12.1854C18.6087 12.5711 20.1622 13.2872 21.4953 14.2678Z" fill="white"/>
<path d="M68.9221 19.4515V19.4184C68.9221 16.025 71.4671 13.2376 75.0809 13.2376C77.2844 13.2376 78.6065 14.0088 79.7523 15.0996L78.4082 16.653C77.4497 15.7606 76.425 15.1657 75.0699 15.1657C72.7892 15.1657 71.1256 17.0387 71.1256 19.3744V19.4074C71.1256 21.7432 72.7782 23.6492 75.0699 23.6492C76.5352 23.6492 77.4717 23.0543 78.4963 22.0957L79.8405 23.4619C78.5955 24.762 77.2293 25.5773 74.9927 25.5773C71.5112 25.5883 68.9221 22.878 68.9221 19.4515Z" fill="white"/>
<path d="M81.1846 13.4468H83.4212L87.046 19.0878L90.6818 13.4468H92.9183V25.3899H90.825V16.8292L87.046 22.4482H86.9799L83.2449 16.8623V25.3899H81.1846V13.4468Z" fill="white"/>
<path d="M94.604 19.4515V19.4184C94.604 16.025 97.1491 13.2376 100.763 13.2376C102.966 13.2376 104.289 14.0088 105.434 15.0996L104.09 16.653C103.132 15.7606 102.107 15.1657 100.752 15.1657C98.4712 15.1657 96.8076 17.0387 96.8076 19.3744V19.4074C96.8076 21.7432 98.4602 23.6492 100.752 23.6492C102.217 23.6492 103.154 23.0543 104.178 22.0957L105.523 23.4619C104.278 24.762 102.911 25.5773 100.675 25.5773C97.2042 25.5883 94.604 22.878 94.604 19.4515Z" fill="white"/>
<path d="M110.602 19.4515V19.4184C110.602 16.025 113.147 13.2376 116.761 13.2376C118.964 13.2376 120.286 14.0088 121.432 15.0996L120.088 16.653C119.129 15.7606 118.105 15.1657 116.75 15.1657C114.469 15.1657 112.805 17.0387 112.805 19.3744V19.4074C112.805 21.7432 114.458 23.6492 116.75 23.6492C118.215 23.6492 119.151 23.0543 120.176 22.0957L121.52 23.4619C120.275 24.762 118.909 25.5773 116.672 25.5773C113.202 25.5883 110.602 22.878 110.602 19.4515Z" fill="white"/>
<path d="M126.379 20.6743L121.641 13.4468H124.109L127.459 18.7353L130.83 13.4468H133.232L128.494 20.6303V25.3899H126.379V20.6743Z" fill="white"/>
<path d="M134.223 13.4468H139.578C140.944 13.4468 142.013 13.8214 142.696 14.5045C143.225 15.0333 143.5 15.6834 143.5 16.4877V16.5207C143.5 17.953 142.685 18.7242 141.792 19.187C143.192 19.6607 144.161 20.465 144.161 22.0846V22.1177C144.161 24.244 142.409 25.3899 139.743 25.3899H134.223V13.4468ZM139.159 18.4819C140.503 18.4819 141.407 17.953 141.407 16.8623V16.8292C141.407 15.8927 140.658 15.3088 139.313 15.3088H136.295V18.4819H139.159ZM139.765 23.5279C141.197 23.5279 142.068 22.966 142.068 21.8863V21.8532C142.068 20.8506 141.264 20.2447 139.611 20.2447H136.284V23.5169H139.765V23.5279Z" fill="white"/>
<path d="M145.693 13.4468H154.54V15.3198H147.786V18.4268H153.769V20.2998H147.786V23.5059H154.628V25.3899H145.693V13.4468Z" fill="white"/>
<path d="M156.258 13.4468H161.58C163.078 13.4468 164.257 13.8875 165.028 14.6367C165.656 15.2868 166.02 16.1682 166.02 17.2148V17.2479C166.02 19.209 164.841 20.3879 163.166 20.8616L166.395 25.3789H163.927L160.996 21.2142H158.363V25.3789H156.269V13.4468H156.258ZM161.426 19.3633C162.924 19.3633 163.883 18.581 163.883 17.3691V17.336C163.883 16.058 162.957 15.3529 161.415 15.3529H158.363V19.3633H161.426Z" fill="white"/>
<path d="M171.198 23.6493L172.454 22.1509C173.6 23.1425 174.735 23.7044 176.222 23.7044C177.522 23.7044 178.338 23.1094 178.338 22.206V22.1729C178.338 21.3246 177.864 20.8618 175.638 20.344C173.093 19.727 171.661 18.9778 171.661 16.7853V16.7523C171.661 14.703 173.369 13.2928 175.738 13.2928C177.478 13.2928 178.856 13.8216 180.068 14.7912L178.944 16.3777C177.864 15.5734 176.795 15.1547 175.705 15.1547C174.482 15.1547 173.765 15.7827 173.765 16.576V16.6091C173.765 17.5345 174.305 17.9422 176.597 18.482C179.12 19.099 180.431 20.0025 180.431 21.9746V22.0077C180.431 24.2442 178.679 25.5663 176.167 25.5663C174.36 25.5553 172.631 24.9273 171.198 23.6493Z" fill="white"/>
<path d="M182.062 13.4468H190.92V15.3198H184.166V18.4268H190.149V20.2998H184.166V23.5059H191.008V25.3899H182.062V13.4468Z" fill="white"/>
<path d="M192.11 19.4515V19.4184C192.11 16.025 194.655 13.2376 198.269 13.2376C200.472 13.2376 201.794 14.0088 202.94 15.0996L201.596 16.653C200.637 15.7606 199.613 15.1657 198.258 15.1657C195.977 15.1657 194.313 17.0387 194.313 19.3744V19.4074C194.313 21.7432 195.966 23.6492 198.258 23.6492C199.723 23.6492 200.659 23.0543 201.684 22.0957L203.028 23.4619C201.783 24.762 200.417 25.5773 198.18 25.5773C194.71 25.5883 192.11 22.878 192.11 19.4515Z" fill="white"/>
<path d="M204.185 20.3218V13.4468H206.278V20.2336C206.278 22.4482 207.424 23.6491 209.297 23.6491C211.159 23.6491 212.305 22.5253 212.305 20.3218V13.4468H214.398V20.2226C214.398 23.7813 212.382 25.5772 209.264 25.5772C206.168 25.5772 204.185 23.7813 204.185 20.3218Z" fill="white"/>
<path d="M216.437 13.4468H221.758C223.257 13.4468 224.435 13.8875 225.207 14.6367C225.835 15.2868 226.198 16.1682 226.198 17.2148V17.2479C226.198 19.209 225.019 20.3879 223.345 20.8616L226.573 25.3789H224.105L221.174 21.2142H218.541V25.3789H216.448V13.4468H216.437ZM221.604 19.3633C223.102 19.3633 224.061 18.581 224.061 17.3691V17.336C224.061 16.058 223.135 15.3529 221.593 15.3529H218.541V19.3633H221.604Z" fill="white"/>
<path d="M230.12 13.4468H228.027V25.3899H230.12V13.4468Z" fill="white"/>
<path d="M235.398 15.3969H231.608V13.4468H241.303V15.3969H237.513V25.3899H235.398V15.3969Z" fill="white"/>
<path d="M246.173 20.6743L241.435 13.4468H243.903L247.253 18.7353L250.624 13.4468H253.037L248.288 20.6303V25.3899H246.173V20.6743Z" fill="white"/>
</g>
<defs>
<clipPath id="clip0_171_109">
<rect width="253.037" height="38.815" fill="white"/>
</clipPath>
</defs>
</svg>
